<svg width="255" height="203" viewBox="0 0 255 203" fill="none" xmlns="http://www.w3.org/2000/svg">
<rect x="36.9236" y="67.2754" width="83.1111" height="46.4444" rx="2.44444" transform="rotate(-19.8212 36.9236 67.2754)" fill="#91949F"/>
<rect x="36.371" y="65.7423" width="83.1111" height="10.5926" transform="rotate(-19.8212 36.371 65.7423)" fill="black"/>
<mask id="mask0_245_303" style="mask-type:alpha" maskUnits="userSpaceOnUse" x="36" y="37" width="83" height="39">
<rect x="36.371" y="65.7423" width="83.1111" height="10.5926" transform="rotate(-19.8212 36.371 65.7423)" fill="black"/>
</mask>
<g mask="url(#mask0_245_303)">
<rect x="24.5486" y="39.6891" width="83.1111" height="10.5926" transform="rotate(25.1788 24.5486 39.6891)" fill="white"/>
<rect x="55.2103" y="28.6375" width="83.1111" height="10.5926" transform="rotate(25.1788 55.2103 28.6375)" fill="white"/>
</g>
<path d="M30.6697 59.3628C29.7882 58.3403 29.9025 56.7968 30.925 55.9153L90.1701 4.8395C91.1926 3.95799 92.7361 4.07229 93.6176 5.0948L98.938 11.2662L35.9901 65.5342L30.6697 59.3628Z" fill="black"/>
<mask id="mask1_245_303" style="mask-type:alpha" maskUnits="userSpaceOnUse" x="30" y="4" width="69" height="62">
<path d="M30.6697 59.3628C29.7882 58.3403 29.9025 56.7968 30.925 55.9153L90.1701 4.8395C91.1926 3.95799 92.7361 4.07229 93.6176 5.0948L98.938 11.2662L35.9901 65.5342L30.6697 59.3628Z" fill="black"/>
</mask>
<g mask="url(#mask1_245_303)">
<path d="M8.53903 39.8431C8.63872 38.4968 9.81097 37.4862 11.1573 37.5859L89.1659 43.3625C90.5123 43.4622 91.5229 44.6344 91.4232 45.9808L90.8215 54.1067L7.9373 47.969L8.53903 39.8431Z" fill="white"/>
<path d="M33.2245 18.5616C33.3242 17.2152 34.4965 16.2046 35.8428 16.3043L113.851 22.0809C115.198 22.1806 116.208 23.3528 116.109 24.6992L115.507 32.8251L32.6228 26.6875L33.2245 18.5616Z" fill="white"/>
</g>
<path d="M90.5219 75.3575C91.1355 75.4705 91.3996 76.2032 90.9992 76.6817L81.9093 87.5445C81.5057 88.0268 80.7311 87.8895 80.5179 87.2979L75.6778 73.8696C75.4646 73.278 75.9735 72.6781 76.5919 72.792L90.5219 75.3575Z" fill="white"/>
<path d="M75.4993 142.414C75.8631 139.98 78.3754 138.498 80.6822 139.357L135.451 159.747C137.695 160.582 138.651 163.232 137.459 165.308L119.36 196.805C118.416 198.447 116.424 199.166 114.649 198.505L72.5661 182.838C70.8501 182.199 69.8158 180.446 70.0865 178.635L75.4993 142.414Z" fill="#FC6235"/>
<rect x="87.9176" y="153.418" width="3.87381" height="23.2429" rx="1.9369" transform="rotate(20.4203 87.9176 153.418)" fill="white"/>
<rect x="102.439" y="158.824" width="3.87381" height="23.2429" rx="1.9369" transform="rotate(20.4203 102.439 158.824)" fill="white"/>
<rect x="116.961" y="164.23" width="3.87381" height="23.2429" rx="1.9369" transform="rotate(20.4203 116.961 164.23)" fill="white"/>
<rect x="77.5569" y="134.059" width="67.7917" height="9.68452" rx="1.9369" transform="rotate(20.4203 77.5569 134.059)" fill="#FBEA4A"/>
<rect width="30.022" height="4.84226" rx="1.9369" transform="matrix(0.670104 -0.742268 -0.742268 -0.670104 93.033 149.801)" fill="#FBEA4A"/>
<rect x="118.257" y="159.192" width="30.022" height="4.84226" rx="1.9369" transform="rotate(-91.2345 118.257 159.192)" fill="#FBEA4A"/>
<g clip-path="url(#clip0_245_303)">
<path d="M203.504 167.679C218.379 162.72 226.418 146.641 221.459 131.767C216.501 116.892 200.422 108.853 185.547 113.812C170.673 118.77 162.634 134.849 167.592 149.724C172.551 164.598 188.63 172.637 203.504 167.679Z" fill="#CDC4D6"/>
<path d="M200.772 159.482C205.741 157.825 209.849 154.262 212.191 149.577C214.533 144.892 214.919 139.468 213.262 134.499C211.606 129.53 208.043 125.422 203.358 123.08C198.673 120.738 193.249 120.352 188.28 122.009C183.311 123.665 179.203 127.228 176.861 131.913C174.518 136.598 174.133 142.022 175.79 146.991C177.446 151.96 181.009 156.068 185.694 158.41C190.379 160.753 195.803 161.138 200.772 159.482Z" fill="#E1D8EC"/>
<path d="M163.899 124.437C163.477 124.578 163.128 124.881 162.929 125.279C162.729 125.677 162.697 126.138 162.838 126.561L164.938 132.861C165.094 133.329 164.836 133.805 164.391 133.954C163.923 134.11 163.447 133.852 163.298 133.407L161.221 127.177C160.933 126.311 159.996 125.764 159.121 126.03C158.2 126.311 157.693 127.287 157.989 128.177L160.09 134.477C160.246 134.945 159.988 135.422 159.543 135.57C159.075 135.726 158.599 135.468 158.45 135.023L156.373 128.794C156.085 127.927 155.148 127.381 154.273 127.646C153.352 127.927 152.845 128.903 153.141 129.793L156.717 140.519C157.421 142.632 159.073 144.176 161.039 144.827C162.711 145.152 163.923 148.787 163.923 148.787L171.746 172.254C172.152 173.472 173.464 174.128 174.681 173.722L175.22 173.542C176.438 173.136 177.094 171.825 176.688 170.607L168.865 147.139C168.865 147.139 167.701 143.647 168.796 142.241C169.401 141.372 169.795 140.373 169.946 139.325C170.098 138.277 170.003 137.207 169.669 136.202L166.093 125.475C165.927 125.057 165.608 124.716 165.201 124.524C164.794 124.331 164.328 124.3 163.899 124.437ZM214.347 107.62C216.455 106.918 218.734 108.057 219.437 110.165L233.303 151.76C233.709 152.978 233.053 154.289 231.835 154.695L231.297 154.875C230.079 155.281 228.767 154.625 228.361 153.407L221.634 133.226C220.141 133.071 218.725 132.487 217.557 131.545C216.389 130.603 215.518 129.344 215.05 127.918L210.717 114.92C210.471 114.202 210.37 113.443 210.419 112.686C210.469 111.93 210.668 111.19 211.006 110.511C211.344 109.832 211.813 109.227 212.387 108.731C212.96 108.234 213.626 107.857 214.347 107.62Z" fill="#998EA4"/>
</g>
<path d="M45 133C37.6193 134.694 20.6799 144.979 27.5767 155.142C30.031 158.759 39.1922 156.594 38.1033 148.971C37.0143 141.349 16.1063 141.712 18.1391 159.135" stroke="black" stroke-width="3.62986"/>
<path d="M204 32.3701C209.468 25.8298 224.2 16.223 239.382 30.1185" stroke="black" stroke-width="3.21656"/>
<circle cx="248.71" cy="38.4816" r="5.78981" fill="#FF6DB8"/>
<g clip-path="url(#clip1_245_303)">
<path d="M179.221 96.0597C192.045 102.476 207.643 97.2813 214.06 84.4568C220.476 71.6322 215.281 56.0343 202.457 49.6179C189.632 43.2015 174.034 48.3963 167.618 61.2209C161.201 74.0454 166.396 89.6433 179.221 96.0597Z" fill="#E1E8ED"/>
<path d="M201.192 96.6421C198.164 92.99 198.546 86.45 202.449 78.6478C206.353 70.8456 211.358 66.6188 216.096 66.8523C215.861 65.8824 215.57 64.9268 215.225 63.9904C210.328 64.2097 204.66 67.7822 199.869 77.3569C195.079 86.9304 195.618 93.61 198.379 97.6607C199.334 97.3693 200.276 97.0406 201.192 96.6421ZM181.808 68.3208C186.598 58.7473 186.059 52.0677 183.298 48.0183C182.342 48.3031 181.403 48.6427 180.486 49.0356C183.513 52.6889 183.132 59.2277 179.228 67.0299C175.325 74.8321 170.32 79.0576 165.581 78.8254C165.813 79.7976 166.113 80.7479 166.453 81.6873C171.349 81.4673 177.019 77.8942 181.808 68.3208Z" fill="#B3BEC4"/>
<path d="M179.244 54.3986C178.939 54.2457 178.668 54.0779 178.441 53.9062C178.136 53.675 177.935 53.3321 177.883 52.9531C177.858 52.7654 177.869 52.5745 177.917 52.3912C177.965 52.208 178.049 52.0359 178.163 51.885C178.278 51.7341 178.421 51.6072 178.584 51.5115C178.748 51.4159 178.929 51.3534 179.116 51.3276C179.495 51.2756 179.88 51.3763 180.184 51.6075C180.689 51.9844 183.652 53.3521 185.715 50.7032C185.95 50.4013 186.295 50.2053 186.675 50.1581C186.863 50.1347 187.053 50.1486 187.236 50.1989C187.419 50.2492 187.589 50.3351 187.739 50.4515C187.888 50.5679 188.013 50.7126 188.107 50.8773C188.201 51.042 188.261 51.2236 188.284 51.4115C188.307 51.5995 188.294 51.7903 188.243 51.9729C188.193 52.1555 188.107 52.3264 187.991 52.4759C185.359 55.8562 181.421 55.4875 179.244 54.3986ZM178.881 60.6058C178.197 60.2637 177.861 59.5746 178.174 58.8664C178.496 58.1388 179.278 57.9493 180.007 58.2721C180.007 58.2721 183.337 59.8818 186.478 57.8099C186.637 57.7067 186.814 57.6358 187 57.6014C187.186 57.567 187.377 57.5697 187.561 57.6094C187.746 57.6491 187.921 57.7249 188.077 57.8326C188.232 57.9403 188.365 58.0777 188.467 58.2368C188.905 58.9014 188.718 59.8045 188.051 60.2436C183.594 63.1848 178.902 60.6161 178.881 60.6058ZM178.401 68.6837C177.454 68.2099 176.664 67.5969 176.158 66.9516C175.922 66.6504 175.815 66.2678 175.861 65.888C175.907 65.5081 176.102 65.1621 176.403 64.9261C176.704 64.69 177.087 64.5833 177.467 64.6294C177.847 64.6755 178.193 64.8705 178.429 65.1717C179.246 66.2144 182.049 67.3686 183.894 66.2737C184.057 66.1769 184.237 66.1132 184.425 66.0862C184.612 66.0591 184.803 66.0693 184.987 66.1161C185.17 66.1628 185.343 66.2453 185.495 66.3588C185.646 66.4722 185.774 66.6145 185.871 66.7774C185.968 66.9403 186.031 67.1206 186.059 67.3081C186.086 67.4957 186.075 67.6867 186.029 67.8703C185.982 68.0539 185.899 68.2264 185.786 68.3782C185.672 68.5299 185.53 68.6578 185.367 68.7545C183.155 70.0687 180.42 69.6938 178.401 68.6837ZM176.332 76.5606C174.328 75.5575 172.92 73.7257 172.22 72.1225C172.144 71.9489 172.103 71.7621 172.1 71.5727C172.096 71.3832 172.13 71.1949 172.199 71.0185C172.268 70.8421 172.371 70.681 172.502 70.5444C172.633 70.4078 172.79 70.2984 172.964 70.2225C173.137 70.1465 173.324 70.1055 173.514 70.1018C173.703 70.098 173.891 70.1316 174.068 70.2006C174.244 70.2697 174.405 70.3728 174.542 70.5041C174.678 70.6353 174.788 70.7922 174.864 70.9658C175.009 71.3013 176.371 74.2459 179.236 74.4196C179.425 74.4315 179.61 74.4805 179.78 74.5639C179.95 74.6473 180.103 74.7633 180.228 74.9055C180.353 75.0477 180.449 75.2131 180.511 75.3924C180.572 75.5717 180.597 75.7613 180.586 75.9504C180.574 76.1395 180.525 76.3245 180.441 76.4947C180.358 76.6648 180.242 76.8169 180.1 76.9422C179.957 77.0675 179.792 77.1636 179.613 77.225C179.433 77.2864 179.244 77.3118 179.055 77.2999C178.107 77.2389 177.181 76.9874 176.332 76.5606ZM172.451 82.9945L172.414 82.9764C169.184 81.3603 167.392 77.9311 167.281 75.3951C167.245 74.5997 167.834 73.9876 168.629 73.953C169.425 73.9177 170.083 74.5675 170.117 75.3623C170.179 76.7983 171.315 79.4036 173.662 80.6602C174.364 81.0371 174.685 81.7978 174.31 82.4989C173.941 83.1884 173.147 83.3431 172.451 82.9945ZM194.825 94.4922C194.634 94.3968 194.466 94.2601 194.335 94.092C194.203 93.9239 194.11 93.7287 194.063 93.5203C194.016 93.312 194.015 93.0958 194.062 92.8873C194.108 92.6789 194.201 92.4833 194.332 92.3149C197.333 88.4579 202.034 89.4745 203.883 90.8852C204.188 91.1166 204.388 91.4594 204.44 91.8383C204.491 92.2172 204.391 92.6011 204.16 92.9058C204.046 93.0575 203.903 93.1851 203.739 93.2812C203.576 93.3773 203.395 93.44 203.207 93.4657C203.019 93.4914 202.828 93.4796 202.645 93.4309C202.461 93.3822 202.289 93.2976 202.139 93.182C201.642 92.8045 198.673 91.4367 196.61 94.0869C196.405 94.3506 196.116 94.5351 195.79 94.609C195.465 94.6829 195.124 94.6417 194.825 94.4922ZM194.422 87.0321C194.195 86.919 194.003 86.7481 193.863 86.5367C193.724 86.3253 193.642 86.0809 193.627 85.8281C193.612 85.5753 193.664 85.323 193.778 85.0966C193.891 84.8703 194.062 84.6779 194.274 84.5387C198.733 81.5982 201.546 82.8478 203.407 83.6741L203.554 83.7393C203.904 83.8938 204.178 84.1811 204.316 84.5379C204.454 84.8948 204.445 85.2918 204.29 85.6419C204.136 85.9919 203.849 86.2662 203.492 86.4043C203.135 86.5425 202.738 86.5333 202.388 86.3787L202.236 86.311C200.647 85.6061 199.005 84.8748 195.863 86.9467C195.651 87.0863 195.407 87.1677 195.154 87.1827C194.901 87.1977 194.648 87.1457 194.422 87.0321ZM197.045 78.5651C196.814 78.4493 196.617 78.2732 196.477 78.0554C196.337 77.8376 196.259 77.5861 196.25 77.3273C196.24 77.0685 196.301 76.8121 196.425 76.5849C196.55 76.3577 196.733 76.1682 196.955 76.0362C200.203 74.1076 204.576 75.815 206.163 77.8398C206.397 78.141 206.502 78.5225 206.455 78.9009C206.408 79.2793 206.214 79.6237 205.914 79.8591C205.614 80.0944 205.233 80.2013 204.854 80.1566C204.476 80.1119 204.13 79.9191 203.893 79.6203C203.078 78.5783 200.273 77.4234 198.426 78.5171C198.218 78.6399 197.983 78.7087 197.742 78.7171C197.5 78.7255 197.261 78.6732 197.045 78.5651ZM208.134 74.5367C207.832 74.3856 207.593 74.1335 207.458 73.8243C207.312 73.4901 205.946 70.5532 203.087 70.3712C202.716 70.3323 202.375 70.1519 202.135 69.8675C201.895 69.5832 201.773 69.217 201.796 68.8454C201.82 68.4737 201.985 68.1254 202.259 67.8731C202.533 67.6208 202.894 67.4841 203.266 67.4915C206.737 67.7085 209.117 70.4173 210.102 72.6696C210.22 72.9413 210.252 73.2429 210.194 73.5335C210.135 73.8241 209.988 74.0894 209.773 74.2935C209.557 74.4975 209.285 74.6303 208.991 74.6739C208.698 74.7174 208.399 74.6695 208.134 74.5367ZM213.016 70.6273C212.785 70.5124 212.59 70.3379 212.45 70.122C212.31 69.9061 212.23 69.6566 212.218 69.3994C212.157 67.9621 211.014 65.3724 208.667 64.1157C207.963 63.7395 207.72 62.8259 208.095 62.1216C208.467 61.4333 209.337 61.1252 210.032 61.4731L210.068 61.4912C213.3 63.108 215.012 66.6972 215.122 69.2325C215.137 69.6183 215 69.9947 214.74 70.28C214.479 70.5653 214.117 70.7365 213.732 70.7565C213.486 70.7753 213.239 70.7308 213.016 70.6273Z" fill="#DD2E44"/>
</g>
<path d="M14.5 172L16.9031 181.51L25.8366 177.459L19.8996 185.268L28.6365 189.727L18.8302 189.953L20.7913 199.564L14.5 192.039L8.20869 199.564L10.1698 189.953L0.363545 189.727L9.10036 185.268L3.16344 177.459L12.0969 181.51L14.5 172Z" fill="#FF6DB8"/>
<defs>
<clipPath id="clip0_245_303">
<rect width="79" height="79" fill="white" transform="translate(143 114.983) rotate(-18.4361)"/>
</clipPath>
<clipPath id="clip1_245_303">
<rect width="51.9302" height="51.9302" fill="white" transform="translate(179.236 38) rotate(26.5798)"/>
</clipPath>
</defs>
</svg>
