<svg width="23" height="23" viewBox="0 0 23 23" fill="none" xmlns="http://www.w3.org/2000/svg">
<path d="M23 11.5C23 17.8513 17.8513 23 11.5 23C5.14873 23 0 17.8513 0 11.5C0 5.14873 5.14873 0 11.5 0C17.8513 0 23 5.14873 23 11.5Z" fill="#FF6DB8"/>
<path d="M6.53999 16.036C6.75599 13.642 8.05199 11.68 10.68 10.528C12.768 9.61 13.902 9.574 13.902 8.638C13.902 7.756 12.66 7.306 11.292 7.306C9.70799 7.306 8.78999 7.846 7.51199 8.818L6.59399 7.486C8.10599 6.388 9.58199 5.668 11.292 5.704C12.732 5.74 15.702 5.884 15.702 8.836C15.702 10.888 13.308 10.996 10.77 12.238C9.68999 12.778 9.09599 13.624 8.77199 14.416H15.666V16.036H6.53999Z" fill="white"/>
</svg>
