<svg width="177" height="177" viewBox="0 0 177 177" fill="none" xmlns="http://www.w3.org/2000/svg">
<path fill-rule="evenodd" clip-rule="evenodd" d="M0 53.5C0 66.8829 4.91382 79.1183 13.0359 88.5C4.91382 97.8817 0 110.117 0 123.5C0 153.047 23.9529 177 53.5 177C66.8831 177 79.1182 172.086 88.5 163.964C97.8818 172.086 110.117 177 123.5 177C153.047 177 177 153.047 177 123.5C177 110.117 172.086 97.8817 163.964 88.5C172.086 79.1183 177 66.8829 177 53.5C177 23.9528 153.047 0 123.5 0C110.117 0 97.8818 4.91394 88.5 13.036C79.1182 4.91394 66.8831 0 53.5 0C23.9529 0 0 23.9528 0 53.5Z" fill="#DCDDE1"/>
</svg>
