<svg width="23" height="23" viewBox="0 0 23 23" fill="none" xmlns="http://www.w3.org/2000/svg">
<path d="M23 11.5C23 17.8513 17.8513 23 11.5 23C5.14873 23 0 17.8513 0 11.5C0 5.14873 5.14873 0 11.5 0C17.8513 0 23 5.14873 23 11.5Z" fill="#FF6DB8"/>
<path d="M6.75599 6.82C7.97999 6.1 9.27599 5.686 10.608 5.704C12.894 5.74 14.37 6.064 15 7.288C15.81 8.854 14.802 10.42 12.876 10.654C14.802 10.924 15.9 11.5 15.828 13.498C15.756 15.694 13.416 16.18 10.788 16.18C9.07799 16.18 7.69199 15.604 6.17999 14.704L7.09799 13.372C8.37599 14.146 9.22199 14.56 10.788 14.578C13.272 14.614 14.01 14.182 14.01 13.372C13.992 11.5 9.74399 11.608 8.44799 11.608V10.312C9.74399 10.312 13.794 9.52 13.434 8.206C13.236 7.504 12.696 7.306 10.716 7.306C9.59999 7.306 8.59199 7.576 7.70999 8.098L6.75599 6.82Z" fill="white"/>
</svg>
